<?xml version="1.0" encoding="UTF-8" standalone="no"?>
<!-- Created with Inkscape (http://www.inkscape.org/) -->

<svg
   xmlns:dc="http://purl.org/dc/elements/1.1/"
   xmlns:cc="http://creativecommons.org/ns#"
   xmlns:rdf="http://www.w3.org/1999/02/22-rdf-syntax-ns#"
   xmlns:svg="http://www.w3.org/2000/svg"
   xmlns="http://www.w3.org/2000/svg"
   xmlns:xlink="http://www.w3.org/1999/xlink"
   xmlns:sodipodi="http://sodipodi.sourceforge.net/DTD/sodipodi-0.dtd"
   xmlns:inkscape="http://www.inkscape.org/namespaces/inkscape"
   width="256"
   height="256"
   id="svg5624"
   version="1.1"
   inkscape:version="0.48.4 r9939"
   sodipodi:docname="utm-vector-source.svg">
  <defs
     id="defs5626">
    <radialGradient
       inkscape:collect="always"
       xlink:href="#linearGradient3784"
       id="radialGradient5260"
       gradientUnits="userSpaceOnUse"
       gradientTransform="matrix(-2.7144222e-8,1.4999703,-1.8124641,-1.9163171e-8,506.24125,-63.995478)"
       cx="152"
       cy="230.75836"
       fx="152"
       fy="230.75836"
       r="128.00253" />
    <linearGradient
       id="linearGradient3784">
      <stop
         style="stop-color:#dd4814;stop-opacity:1;"
         offset="0"
         id="stop3786" />
      <stop
         style="stop-color:#f26939;stop-opacity:1;"
         offset="1"
         id="stop3788" />
    </linearGradient>
    <radialGradient
       inkscape:collect="always"
       xlink:href="#linearGradient5301"
       id="radialGradient5307"
       cx="148"
       cy="166.99866"
       fx="148"
       fy="166.99866"
       r="90"
       gradientTransform="matrix(1,0,0,0.94445947,0,9.2751928)"
       gradientUnits="userSpaceOnUse" />
    <linearGradient
       id="linearGradient5301">
      <stop
         style="stop-color:#ffffff;stop-opacity:1;"
         offset="0"
         id="stop5303" />
      <stop
         style="stop-color:#eeeeee;stop-opacity:1;"
         offset="1"
         id="stop5305" />
    </linearGradient>
    <radialGradient
       inkscape:collect="always"
       xlink:href="#linearGradient3784-5"
       id="radialGradient5731"
       gradientUnits="userSpaceOnUse"
       gradientTransform="matrix(-2.7144222e-8,1.4999703,-1.8124641,-1.9163171e-8,506.24125,-63.995478)"
       cx="152"
       cy="230.75836"
       fx="152"
       fy="230.75836"
       r="128.00253" />
    <linearGradient
       id="linearGradient3784-5">
      <stop
         style="stop-color:#dd4814;stop-opacity:1;"
         offset="0"
         id="stop3786-0" />
      <stop
         style="stop-color:#f26939;stop-opacity:1;"
         offset="1"
         id="stop3788-0" />
    </linearGradient>
    <radialGradient
       r="128.00253"
       fy="230.75836"
       fx="152"
       cy="230.75836"
       cx="152"
       gradientTransform="matrix(-2.7144222e-8,1.4999703,-1.8124641,-1.9163171e-8,486.24125,-303.99548)"
       gradientUnits="userSpaceOnUse"
       id="radialGradient5754"
       xlink:href="#linearGradient3784-5"
       inkscape:collect="always" />
    <radialGradient
       r="128.00253"
       fy="230.75836"
       fx="152"
       cy="230.75836"
       cx="152"
       gradientTransform="matrix(-2.7144222e-8,1.4999703,-1.8124641,-1.9163171e-8,506.24498,-63.99548)"
       gradientUnits="userSpaceOnUse"
       id="radialGradient3130"
       xlink:href="#linearGradient3784-0-6"
       inkscape:collect="always" />
    <linearGradient
       id="linearGradient3784-0-6">
      <stop
         style="stop-color:#dd4814;stop-opacity:1;"
         offset="0"
         id="stop3786-2-1" />
      <stop
         style="stop-color:#f26939;stop-opacity:1;"
         offset="1"
         id="stop3788-0-5" />
    </linearGradient>
    <radialGradient
       r="128.00253"
       fy="230.75836"
       fx="152"
       cy="230.75836"
       cx="152"
       gradientTransform="matrix(-2.7144222e-8,1.4999703,-1.8124641,-1.9163171e-8,486.24498,-303.99548)"
       gradientUnits="userSpaceOnUse"
       id="radialGradient4137"
       xlink:href="#linearGradient3784-0-6"
       inkscape:collect="always" />
    <radialGradient
       r="128.00253"
       fy="230.75836"
       fx="152"
       cy="230.75836"
       cx="152"
       gradientTransform="matrix(-2.7144222e-8,1.4999703,-1.8124641,-1.9163171e-8,506.24498,-63.99548)"
       gradientUnits="userSpaceOnUse"
       id="radialGradient3130-6"
       xlink:href="#linearGradient3784-0-6-3"
       inkscape:collect="always" />
    <linearGradient
       id="linearGradient3784-0-6-3">
      <stop
         style="stop-color:#dd4814;stop-opacity:1;"
         offset="0"
         id="stop3786-2-1-6" />
      <stop
         style="stop-color:#f26939;stop-opacity:1;"
         offset="1"
         id="stop3788-0-5-4" />
    </linearGradient>
    <radialGradient
       r="128.00253"
       fy="230.75836"
       fx="152"
       cy="230.75836"
       cx="152"
       gradientTransform="matrix(-2.7144222e-8,1.4999703,-1.8124641,-1.9163171e-8,486.24499,-303.99548)"
       gradientUnits="userSpaceOnUse"
       id="radialGradient4169"
       xlink:href="#linearGradient3784-0-6-3"
       inkscape:collect="always" />
    <radialGradient
       inkscape:collect="always"
       xlink:href="#linearGradient3784-0-9"
       id="radialGradient3905"
       cx="148.00372"
       cy="160"
       fx="148.00372"
       fy="160"
       r="128"
       gradientUnits="userSpaceOnUse" />
    <linearGradient
       id="linearGradient3784-0-9">
      <stop
         style="stop-color:#f34453;stop-opacity:1;"
         offset="0"
         id="stop3786-2-3" />
      <stop
         style="stop-color:#772953;stop-opacity:1;"
         offset="1"
         id="stop3788-0-7" />
    </linearGradient>
    <linearGradient
       id="linearGradient8265-821-176-38-919-66-249-7-7-3">
      <stop
         offset="0"
         style="stop-color:#ffffff;stop-opacity:1"
         id="stop2687-1-9-5" />
      <stop
         offset="1"
         style="stop-color:#ffffff;stop-opacity:0"
         id="stop2689-5-4-2" />
    </linearGradient>
    <linearGradient
       y2="24.627615"
       x2="20.054544"
       y1="15.298182"
       x1="16.626165"
       gradientTransform="matrix(8.7534315,0,0,13.716468,44.099235,513.17831)"
       gradientUnits="userSpaceOnUse"
       id="linearGradient6679-0"
       xlink:href="#linearGradient8265-821-176-38-919-66-249-7-7-3"
       inkscape:collect="always" />
    <linearGradient
       y2="778.97327"
       x2="243.59392"
       y1="682.68555"
       x1="243.59392"
       gradientTransform="translate(5771.044,-861.8942)"
       gradientUnits="userSpaceOnUse"
       id="linearGradient8122"
       xlink:href="#linearGradient7132-8"
       inkscape:collect="always" />
    <linearGradient
       inkscape:collect="always"
       id="linearGradient7132-8">
      <stop
         style="stop-color:black;stop-opacity:1"
         offset="0"
         id="stop7134" />
      <stop
         style="stop-color:#1a1a1a;stop-opacity:0;"
         offset="1"
         id="stop7136" />
    </linearGradient>
    <linearGradient
       gradientUnits="userSpaceOnUse"
       y2="934.98242"
       x2="241.83052"
       y1="912.35504"
       x1="325.2691"
       id="linearGradient7024"
       xlink:href="#linearGradient7018"
       inkscape:collect="always" />
    <linearGradient
       gradientUnits="userSpaceOnUse"
       y2="765.36218"
       x2="229"
       y1="603.36218"
       x1="171"
       id="linearGradient6244"
       xlink:href="#linearGradient6238"
       inkscape:collect="always" />
    <radialGradient
       gradientUnits="userSpaceOnUse"
       gradientTransform="matrix(1.1391654,-0.0241322,0.03218033,1.5190788,639.62168,343.47075)"
       r="257.5"
       fy="389.7793"
       fx="257.5"
       cy="389.7793"
       cx="257.5"
       id="radialGradient3910"
       xlink:href="#linearGradient3904"
       inkscape:collect="always" />
    <radialGradient
       gradientUnits="userSpaceOnUse"
       gradientTransform="matrix(0.47358745,1.457264,-1.2777305,0.41524195,1024.9369,191.97234)"
       r="155.77136"
       fy="720.92493"
       fx="112.92245"
       cy="720.92493"
       cx="112.92245"
       id="radialGradient3884"
       xlink:href="#linearGradient3878"
       inkscape:collect="always" />
    <linearGradient
       gradientUnits="userSpaceOnUse"
       y2="683.65649"
       x2="259.60919"
       y1="647.29102"
       x1="263.64981"
       id="linearGradient3838"
       xlink:href="#linearGradient3832"
       inkscape:collect="always" />
    <linearGradient
       id="linearGradient3832"
       inkscape:collect="always">
      <stop
         id="stop3834"
         offset="0"
         style="stop-color:white;stop-opacity:0" />
      <stop
         id="stop3836"
         offset="1"
         style="stop-color:black;stop-opacity:0;" />
    </linearGradient>
    <linearGradient
       id="linearGradient3878"
       inkscape:collect="always">
      <stop
         id="stop3880"
         offset="0"
         style="stop-color:#ececec;stop-opacity:1" />
      <stop
         style="stop-color:white;stop-opacity:1"
         offset="0.55279762"
         id="stop3886" />
      <stop
         id="stop3882"
         offset="1"
         style="stop-color:#b3b3b3;stop-opacity:1" />
    </linearGradient>
    <linearGradient
       id="linearGradient3904"
       inkscape:collect="always">
      <stop
         id="stop3906"
         offset="0"
         style="stop-color:#c276c2;stop-opacity:1" />
      <stop
         id="stop3908"
         offset="1"
         style="stop-color:#8a0796;stop-opacity:1" />
    </linearGradient>
    <linearGradient
       id="linearGradient6238"
       inkscape:collect="always">
      <stop
         id="stop6240"
         offset="0"
         style="stop-color:#1a1a1a;stop-opacity:0.27230048" />
      <stop
         id="stop6242"
         offset="1"
         style="stop-color:#1a1a1a;stop-opacity:0;" />
    </linearGradient>
    <linearGradient
       id="linearGradient7018"
       inkscape:collect="always">
      <stop
         id="stop7020"
         offset="0"
         style="stop-color:white;stop-opacity:1;" />
      <stop
         id="stop7022"
         offset="1"
         style="stop-color:white;stop-opacity:0;" />
    </linearGradient>
    <linearGradient
       inkscape:collect="always"
       xlink:href="#linearGradient7132-8"
       id="linearGradient6096"
       gradientUnits="userSpaceOnUse"
       x1="243.59392"
       y1="682.68555"
       x2="243.59392"
       y2="778.97327"
       gradientTransform="translate(838.79741,0)" />
    <linearGradient
       y2="24.627615"
       x2="20.054544"
       y1="15.298182"
       x1="16.626165"
       gradientTransform="matrix(8.7534315,0,0,13.716468,44.099235,513.17831)"
       gradientUnits="userSpaceOnUse"
       id="linearGradient6679"
       xlink:href="#linearGradient8265-821-176-38-919-66-249-7-7"
       inkscape:collect="always" />
    <linearGradient
       id="linearGradient8775">
      <stop
         style="stop-color:white;stop-opacity:0"
         offset="0"
         id="stop8777" />
      <stop
         id="stop7191"
         offset="0.51078659"
         style="stop-color:white;stop-opacity:0;" />
      <stop
         id="stop8779"
         offset="0.85131109"
         style="stop-color:white;stop-opacity:0" />
      <stop
         style="stop-color:white;stop-opacity:1"
         offset="1"
         id="stop8781" />
    </linearGradient>
    <linearGradient
       id="linearGradient8661">
      <stop
         id="stop8663"
         offset="0"
         style="stop-color:#f90062;stop-opacity:1" />
      <stop
         id="stop8665"
         offset="1"
         style="stop-color:#ff418c;stop-opacity:0" />
    </linearGradient>
    <linearGradient
       id="linearGradient8655">
      <stop
         id="stop8657"
         style="stop-color:#ac57ff;stop-opacity:1"
         offset="0" />
      <stop
         id="stop8659"
         style="stop-color:#f0431a;stop-opacity:1;"
         offset="1" />
    </linearGradient>
    <linearGradient
       id="linearGradient8265-821-176-38-919-66-249-7-7">
      <stop
         offset="0"
         style="stop-color:#ffffff;stop-opacity:1"
         id="stop2687-1-9" />
      <stop
         offset="1"
         style="stop-color:#ffffff;stop-opacity:0"
         id="stop2689-5-4" />
    </linearGradient>
    <linearGradient
       id="linearGradient3924">
      <stop
         id="stop3926"
         style="stop-color:#ffffff;stop-opacity:1;"
         offset="0" />
      <stop
         offset="0.06316455"
         style="stop-color:#ffffff;stop-opacity:0.23529412;"
         id="stop3928" />
      <stop
         id="stop3930"
         style="stop-color:#ffffff;stop-opacity:0.15686275;"
         offset="0.95056331" />
      <stop
         id="stop3932"
         style="stop-color:#ffffff;stop-opacity:0.39215687;"
         offset="1" />
    </linearGradient>
    <linearGradient
       id="linearGradient3895-9-0-3-2-4-0">
      <stop
         id="stop3897-0-5-7-0-3-0"
         style="stop-color:#dc6838;stop-opacity:1"
         offset="0" />
      <stop
         id="stop3899-8-7-06-7-9-9"
         style="stop-color:#ad3911;stop-opacity:1;"
         offset="1" />
    </linearGradient>
    <linearGradient
       id="linearGradient3895-9-0-3-2-4">
      <stop
         id="stop3897-0-5-7-0-3"
         style="stop-color:#911986;stop-opacity:1"
         offset="0" />
      <stop
         id="stop3899-8-7-06-7-9"
         style="stop-color:#ad1141;stop-opacity:1"
         offset="1" />
    </linearGradient>
    <linearGradient
       id="linearGradient3895-9-0-3-2-4-9">
      <stop
         id="stop3897-0-5-7-0-3-6"
         style="stop-color:#dc6838;stop-opacity:1"
         offset="0" />
      <stop
         id="stop3899-8-7-06-7-9-6"
         style="stop-color:#ad3911;stop-opacity:1;"
         offset="1" />
    </linearGradient>
    <linearGradient
       id="linearGradient4067-0-2">
      <stop
         style="stop-color:#ffe452;stop-opacity:1;"
         offset="0"
         id="stop4069-2-9" />
      <stop
         style="stop-color:#ffeb41;stop-opacity:0;"
         offset="1"
         id="stop4071-8-9" />
    </linearGradient>
    <linearGradient
       id="linearGradient4644-104-3-3-6-2">
      <stop
         offset="0"
         style="stop-color:#ff7a35;stop-opacity:1;"
         id="stop5237-6-5-1-7" />
      <stop
         offset="1"
         style="stop-color:#f0431a;stop-opacity:1;"
         id="stop5239-4-6-4-8" />
    </linearGradient>
    <linearGradient
       id="linearGradient7665">
      <stop
         id="stop7667"
         style="stop-color:#dc6838;stop-opacity:1"
         offset="0" />
      <stop
         id="stop7669"
         style="stop-color:#ad3911;stop-opacity:1;"
         offset="1" />
    </linearGradient>
    <radialGradient
       cx="4.9929786"
       cy="43.5"
       r="2.5"
       fx="4.9929786"
       fy="43.5"
       id="radialGradient2455-1"
       xlink:href="#linearGradient3688-166-749-5"
       gradientUnits="userSpaceOnUse"
       gradientTransform="matrix(2.003784,0,0,1.4,27.98813,-17.4)" />
    <linearGradient
       id="linearGradient3688-166-749-5">
      <stop
         id="stop2883-0"
         style="stop-color:#181818;stop-opacity:1"
         offset="0" />
      <stop
         id="stop2885-5"
         style="stop-color:#181818;stop-opacity:0"
         offset="1" />
    </linearGradient>
    <radialGradient
       cx="4.9929786"
       cy="43.5"
       r="2.5"
       fx="4.9929786"
       fy="43.5"
       id="radialGradient2457-5"
       xlink:href="#linearGradient3688-464-309-8"
       gradientUnits="userSpaceOnUse"
       gradientTransform="matrix(2.003784,0,0,1.4,-20.01187,-104.4)" />
    <linearGradient
       id="linearGradient3688-464-309-8">
      <stop
         id="stop2889-9"
         style="stop-color:#181818;stop-opacity:1"
         offset="0" />
      <stop
         id="stop2891-4"
         style="stop-color:#181818;stop-opacity:0"
         offset="1" />
    </linearGradient>
    <linearGradient
       x1="25.058096"
       y1="47.027729"
       x2="25.058096"
       y2="39.999443"
       id="linearGradient2459-7"
       xlink:href="#linearGradient3702-501-757-0"
       gradientUnits="userSpaceOnUse" />
    <linearGradient
       id="linearGradient3702-501-757-0">
      <stop
         id="stop2895-0"
         style="stop-color:#181818;stop-opacity:0"
         offset="0" />
      <stop
         id="stop2897-2"
         style="stop-color:#181818;stop-opacity:1"
         offset="0.5" />
      <stop
         id="stop2899-6"
         style="stop-color:#181818;stop-opacity:0"
         offset="1" />
    </linearGradient>
    <radialGradient
       r="35.338131"
       fy="93.467628"
       fx="-4.0287771"
       cy="93.467628"
       cx="-4.0287771"
       gradientTransform="matrix(1,0,0,0.43648207,0,52.670685)"
       gradientUnits="userSpaceOnUse"
       id="radialGradient3902"
       xlink:href="#linearGradient3811"
       inkscape:collect="always" />
    <linearGradient
       id="linearGradient3811">
      <stop
         style="stop-color:#000000;stop-opacity:1;"
         offset="0"
         id="stop3813" />
      <stop
         style="stop-color:#000000;stop-opacity:0;"
         offset="1"
         id="stop3815" />
    </linearGradient>
    <linearGradient
       id="linearGradient6712">
      <stop
         style="stop-color:#e27000;stop-opacity:1"
         offset="0"
         id="stop6714" />
      <stop
         style="stop-color:#efda6e;stop-opacity:0"
         offset="1"
         id="stop6716" />
    </linearGradient>
    <linearGradient
       id="linearGradient7486">
      <stop
         offset="0"
         style="stop-color:#f34453;stop-opacity:1;"
         id="stop7488" />
      <stop
         offset="1"
         style="stop-color:#772953;stop-opacity:1;"
         id="stop7490" />
    </linearGradient>
    <linearGradient
       spreadMethod="reflect"
       gradientUnits="userSpaceOnUse"
       y2="466.82358"
       x2="298.58319"
       y1="466.23917"
       x1="290.17786"
       id="linearGradient4280"
       xlink:href="#linearGradient5048"
       inkscape:collect="always" />
    <linearGradient
       id="linearGradient8054-6">
      <stop
         id="stop8056-0"
         offset="0"
         style="stop-color:#de4814;stop-opacity:1;" />
      <stop
         id="stop8058-6"
         offset="1"
         style="stop-color:#ff6000;stop-opacity:1;" />
    </linearGradient>
    <linearGradient
       id="linearGradient4865">
      <stop
         id="stop4867"
         offset="0"
         style="stop-color:#e1e1e1;stop-opacity:1;" />
      <stop
         id="stop4869"
         offset="1"
         style="stop-color:#ffffff;stop-opacity:1" />
    </linearGradient>
    <linearGradient
       id="linearGradient4342">
      <stop
         id="stop4344"
         offset="0"
         style="stop-color:#e1e1e1;stop-opacity:1;" />
      <stop
         id="stop4346"
         offset="1"
         style="stop-color:#e1e1e1;stop-opacity:0;" />
    </linearGradient>
    <linearGradient
       id="linearGradient4195">
      <stop
         style="stop-color:#ebebeb;stop-opacity:1;"
         offset="0"
         id="stop4197" />
      <stop
         style="stop-color:#ebebeb;stop-opacity:0;"
         offset="1"
         id="stop4199" />
    </linearGradient>
    <clipPath
       id="clipPath4329"
       clipPathUnits="userSpaceOnUse">
      <path
         inkscape:connector-curvature="0"
         id="path4331"
         d="m 277.25,902.23719 c -11.59798,0 -21,9.40202 -21,21 0,0.1891 0.007,0.37461 0.0117,0.5625 -0.005,0.1879 -0.0117,0.37341 -0.0117,0.5625 0,11.59802 9.40202,21.00001 21,21.00001 11.59798,0 21.00001,-9.40199 21.00001,-21.00001 0,-0.18909 -0.007,-0.3746 -0.0117,-0.5625 0.005,-0.18789 0.0117,-0.3734 0.0117,-0.5625 0,-11.59798 -9.40203,-21 -21.00001,-21 z"
         style="fill:#ff00ff;fill-opacity:1;stroke:none" />
    </clipPath>
    <linearGradient
       id="linearGradient5048"
       inkscape:collect="always">
      <stop
         id="stop5050"
         offset="0"
         style="stop-color:#ffffff;stop-opacity:1;" />
      <stop
         id="stop5052"
         offset="1"
         style="stop-color:#ffffff;stop-opacity:0;" />
    </linearGradient>
    <clipPath
       id="clipPath5171"
       clipPathUnits="userSpaceOnUse">
      <path
         inkscape:connector-curvature="0"
         style="fill:#ff00ff;fill-opacity:1;stroke:none"
         d="m 281.15075,974.51295 c -8.20101,8.20101 -8.20101,21.49748 0,29.69845 8.20104,8.2011 21.49748,8.201 29.69849,0 8.20101,-8.20097 8.20104,-21.49741 0,-29.69845 -8.20101,-8.20101 -21.49748,-8.20101 -29.69849,0 z m 2.82843,2.82843 c 6.63891,-6.63891 17.40272,-6.63891 24.04163,0 6.63891,6.63891 6.63891,17.40272 0,24.04162 -6.63891,6.6389 -17.40272,6.6389 -24.04163,0 -6.63891,-6.6389 -6.63891,-17.40271 0,-24.04162 z"
         id="path5173" />
    </clipPath>
    <clipPath
       id="clipPath5149"
       clipPathUnits="userSpaceOnUse">
      <path
         inkscape:connector-curvature="0"
         style="fill:#ff00ff;fill-opacity:1;stroke:none"
         d="m 306.50004,1007.5487 c 10.04414,-5.7989 13.48552,-18.64235 7.68653,-28.68649 -5.79901,-10.04418 -18.64239,-13.48553 -28.68653,-7.68654 -10.04415,5.79899 -13.48555,18.64236 -7.68654,28.68654 5.79899,10.04419 18.64239,13.48549 28.68654,7.68649 z m -2,-3.4641 c -8.13098,4.6945 -18.52802,1.9086 -23.22244,-6.22239 -4.69442,-8.13098 -1.90854,-18.52801 6.22244,-23.22243 8.13097,-4.69442 18.52801,-1.90855 23.22243,6.22243 4.69442,8.13097 1.90854,18.52801 -6.22243,23.22239 z"
         id="path5151" />
    </clipPath>
    <clipPath
       id="clipPath5101"
       clipPathUnits="userSpaceOnUse">
      <path
         transform="translate(0,-0.44665647)"
         d="m 315,448 a 19,19 0 1 1 -38,0 19,19 0 1 1 38,0 z"
         sodipodi:ry="19"
         sodipodi:rx="19"
         sodipodi:cy="448"
         sodipodi:cx="296"
         id="path5103"
         style="fill:#ff00ff;fill-opacity:1;stroke:none"
         sodipodi:type="arc" />
    </clipPath>
    <linearGradient
       id="linearGradient5081">
      <stop
         style="stop-color:#c3c1bf;stop-opacity:1;"
         offset="0"
         id="stop5083" />
      <stop
         style="stop-color:#a39f9b;stop-opacity:1;"
         offset="1"
         id="stop5085" />
    </linearGradient>
    <linearGradient
       id="linearGradient7958">
      <stop
         style="stop-color:#5d5d57;stop-opacity:1;"
         offset="0"
         id="stop7960" />
      <stop
         style="stop-color:#2d2c2b;stop-opacity:1;"
         offset="1"
         id="stop7962" />
    </linearGradient>
    <linearGradient
       id="linearGradient5032">
      <stop
         id="stop5034"
         offset="0"
         style="stop-color:#f4f4f4;stop-opacity:1;" />
      <stop
         id="stop5036"
         offset="1"
         style="stop-color:#9d9d9d;stop-opacity:1;" />
    </linearGradient>
    <filter
       height="2.1459699"
       y="-0.57298487"
       width="1.16371"
       x="-0.081854984"
       id="filter4705"
       inkscape:collect="always"
       color-interpolation-filters="sRGB">
      <feGaussianBlur
         id="feGaussianBlur4707"
         stdDeviation="3.8198993"
         inkscape:collect="always" />
    </filter>
    <linearGradient
       id="linearGradient4147"
       inkscape:collect="always">
      <stop
         id="stop4149"
         offset="0"
         style="stop-color:#000000;stop-opacity:1;" />
      <stop
         id="stop4151"
         offset="1"
         style="stop-color:#000000;stop-opacity:0;" />
    </linearGradient>
    <radialGradient
       inkscape:collect="always"
       xlink:href="#linearGradient4147"
       id="radialGradient4334"
       gradientUnits="userSpaceOnUse"
       gradientTransform="matrix(1,0,0,0.14285714,0,116.57143)"
       cx="88"
       cy="136"
       fx="88"
       fy="136"
       r="56" />
    <radialGradient
       gradientTransform="matrix(0.859375,0,0,0.859375,0.8092953,-217.5)"
       r="128"
       fy="160"
       fx="148.00372"
       cy="160"
       cx="148.00372"
       gradientUnits="userSpaceOnUse"
       id="radialGradient3970-3"
       xlink:href="#linearGradient3784-0-9-8"
       inkscape:collect="always" />
    <linearGradient
       id="linearGradient3784-0-9-8">
      <stop
         style="stop-color:#f34453;stop-opacity:1;"
         offset="0"
         id="stop3786-2-3-9" />
      <stop
         style="stop-color:#772953;stop-opacity:1;"
         offset="1"
         id="stop3788-0-7-1" />
    </linearGradient>
    <radialGradient
       r="128"
       fy="160"
       fx="148.00372"
       cy="160"
       cx="148.00372"
       gradientTransform="matrix(0.859375,0,0,0.859375,0.80929,-217.5)"
       gradientUnits="userSpaceOnUse"
       id="radialGradient4432"
       xlink:href="#linearGradient3784-0-9-8"
       inkscape:collect="always" />
  </defs>
  <sodipodi:namedview
     id="base"
     pagecolor="#ffffff"
     bordercolor="#666666"
     borderopacity="1.0"
     inkscape:pageopacity="0.0"
     inkscape:pageshadow="2"
     inkscape:zoom="1.5308737"
     inkscape:cx="76.428892"
     inkscape:cy="165.82806"
     inkscape:current-layer="layer1"
     showgrid="true"
     inkscape:grid-bbox="true"
     inkscape:document-units="px"
     inkscape:window-width="1366"
     inkscape:window-height="715"
     inkscape:window-x="0"
     inkscape:window-y="26"
     inkscape:window-maximized="1" />
  <metadata
     id="metadata5629">
    <rdf:RDF>
      <cc:Work
         rdf:about="">
        <dc:format>image/svg+xml</dc:format>
        <dc:type
           rdf:resource="http://purl.org/dc/dcmitype/StillImage" />
        <dc:title />
      </cc:Work>
    </rdf:RDF>
  </metadata>
  <g
     id="layer1"
     inkscape:label="Layer 1"
     inkscape:groupmode="layer"
     transform="translate(0,208)">
    <path
       sodipodi:type="arc"
       style="opacity:0.4;color:#000000;fill:url(#radialGradient4334);fill-opacity:1;fill-rule:nonzero;stroke:none;stroke-width:1;marker:none;visibility:visible;display:inline;overflow:visible;enable-background:accumulate"
       id="path3242"
       sodipodi:cx="88"
       sodipodi:cy="136"
       sodipodi:rx="56"
       sodipodi:ry="8"
       d="m 144,136 a 56,8 0 1 1 -112,0 56,8 0 1 1 112,0 z"
       transform="matrix(2.2321429,0,0,1.9531185,-68.428573,-235.24906)" />
    <path
       transform="matrix(1.4292426,0,0,0.54664542,2.2265944,-43.968667)"
       d="m 144,136 a 56,8 0 1 1 -112,0 56,8 0 1 1 112,0 z"
       sodipodi:ry="8"
       sodipodi:rx="56"
       sodipodi:cy="136"
       sodipodi:cx="88"
       id="path3244"
       style="opacity:0.3;color:#000000;fill:#000000;fill-opacity:1;fill-rule:nonzero;stroke:none;stroke-width:1;marker:none;visibility:visible;display:inline;overflow:visible;filter:url(#filter4705);enable-background:accumulate"
       sodipodi:type="arc" />
    <path
       style="color:#bebebe;fill:url(#radialGradient4432);fill-opacity:1;fill-rule:nonzero;stroke:none;stroke-width:1.20000005;marker:none;visibility:visible;display:inline;overflow:visible;enable-background:accumulate"
       d="m 238,-138.4375 0,116.875001 c 0,48.125 0,51.5625 -51.5625,51.5625 l -116.875,0 C 18,30.000001 18,26.562501 18,-21.562499 L 18,-138.4375 C 18,-186.5625 18,-190 69.5625,-190 l 116.875,0 C 238,-190 238,-186.5625 238,-138.4375 z"
       id="rect3013"
       inkscape:connector-curvature="0"
       sodipodi:nodetypes="ccccccccc" />
    <path
       style="opacity:0.05;fill:#ffffff;fill-opacity:1;stroke:none;display:inline;enable-background:new"
       d="m 194.95068,29.994422 c 11.92855,-0.05629 20.54675,-0.382938 26.80176,-2.067872 l -19.84619,-34.0258778 -21.05469,36.0937498 5.58594,0 c 3.00781,0 5.84442,0.01255 8.51318,0 z m 6.95557,-36.0937498 -24.0625,-41.2500042 -24.0625,41.2500042 48.125,0 z m 0,0 35.90576,0 C 237.95683,-10.660495 238,-15.781176 238,-21.568078 l 0,-5.15625 -12.03125,-20.625004 -24.0625,41.2500042 z m 24.0625,-41.2500042 -24.0625,-41.249997 -24.0625,41.249997 48.125,0 z m 0,0 12.03125,0 0,-20.625 -12.03125,20.625 z m -48.125,0 -24.0625,-41.249997 -24.0625,41.249997 48.125,0 z m -48.125,0 -24.0625,41.2500042 48.125,0 -24.0625,-41.2500042 z m 0,0 -24.0625,-41.249997 -24.0625,41.249997 48.125,0 z m -48.125,0 -24.0625,41.2500042 48.125,0 -24.0625,-41.2500042 z m 0,0 -24.0625,-41.249997 -24.0625,41.249997 48.125,0 z m -48.125,0 L 18,-20.842981 c 0.0034,5.479109 0.04924,10.382849 0.187988,14.7436532 l 39.343262,0 -24.0625,-41.2500042 z m 0,0 L 18,-73.85568 l 0,26.506348 15.46875,0 z M 57.53125,-6.0993278 37.282227,28.597937 c 7.503778,1.383078 17.874355,1.396485 32.280273,1.396485 l 9.023437,0 L 57.53125,-6.0993278 z m 0,-82.5000012 L 33.46875,-129.84932 18,-103.34298 l 0,14.743651 39.53125,0 z m 0,0 48.125,0 -24.0625,-41.249991 -24.0625,41.249991 z m 24.0625,-41.249991 -24.0625,-41.25001 -24.0625,41.25001 48.125,0 z m 0,0 48.125,0 -24.0625,-41.25001 -24.0625,41.25001 z m 24.0625,-41.25001 -11.037598,-18.90625 -25.056152,0 c -0.351072,0 -0.647324,-1e-5 -0.993652,0 l -11.037598,18.90625 48.125,0 z m 0,0 48.125,0 -11.0376,-18.90625 -26.0498,0 -11.0376,18.90625 z m 48.125,0 48.125,0 -11.0376,-18.90625 c -1.47242,-0.002 -2.86557,0 -4.43115,0 l -21.61865,0 -11.0376,18.90625 z m 0,0 -24.0625,41.25001 48.125,0 -24.0625,-41.25001 z m 24.0625,41.25001 48.125,0 -24.0625,-41.25001 -24.0625,41.25001 z m 0,0 -24.0625,41.249991 48.125,0 -24.0625,-41.249991 z m 24.0625,41.249991 36.09375,0 0,-20.625001 -12.03125,-20.62499 -24.0625,41.249991 z m 24.0625,-41.249991 12.03125,0 0,-8.59376 c 0,-4.3074 -0.0354,-8.22545 -0.10742,-11.84326 l -11.92383,20.43702 z m -72.1875,41.249991 -24.0625,-41.249991 -24.0625,41.249991 48.125,0 z m 48.125,-82.500001 34.29443,0 c -2.59562,-12.94978 -8.84525,-17.03377 -23.60595,-18.31543 l -10.68848,18.31543 z m -144.375,0 -10.822754,-18.55713 c -17.168207,0.97633 -24.126446,4.67382 -26.90918,18.55713 l 37.731934,0 z m -24.0625,41.25001 -15.200195,-26.07667 C 18.065613,-150.87993 18,-145.09448 18,-138.44308 l 0,8.59376 15.46875,0 z m 72.1875,123.7499922 -21.054688,36.0937498 42.109378,0 -21.05469,-36.0937498 z m 48.125,0 -21.05469,36.0937498 42.10938,0 -21.05469,-36.0937498 z M 27.533691,24.972449 20.01416,12.081824 c 1.383663,6.185601 3.68861,10.244137 7.519531,12.890625 z"
       id="path4268"
       inkscape:connector-curvature="0" />
    <path
       id="path3894"
       d="m 127.06925,-175.41796 c -52.82946,0 -95.65216,42.8227 -95.65216,95.653837 0,52.827764 42.8227,95.650464 95.65216,95.650464 52.82946,0 95.65219,-42.82439 95.65219,-95.650464 9.5e-4,-52.831137 -42.82273,-95.653837 -95.65219,-95.653837 z m 43.04374,154.351361 c 0,4.3209 -3.50601,7.82352 -7.82859,7.82352 H 91.85074 c -4.32091,0 -7.8269,-3.50262 -7.8269,-7.82352 V -138.46165 c 0,-4.32089 3.50599,-7.8252 7.8269,-7.8252 h 70.43366 c 4.32258,0 7.82859,3.50599 7.82859,7.8252 v 117.395051 z m -43.04374,3.47392 c -3.95478,0 -7.17732,-3.2141 -7.17732,-7.17057 0,-3.95479 3.22254,-7.170584 7.17732,-7.170584 3.9548,0 7.17734,3.215794 7.17734,7.170584 0,3.95647 -3.22254,7.17057 -7.17734,7.17057 z M 162.2844,-129.72533 v 90.003397 c 0,2.15961 -1.74964,3.91429 -3.91093,3.91429 H 95.76503 c -2.15961,0 -3.91261,-1.75468 -3.91261,-3.91429 v -90.003397 c 0,-2.16131 1.753,-3.91431 3.91261,-3.91431 h 62.60844 c 2.16129,0 3.91093,1.753 3.91093,3.91431 z m -28.03781,-8.62664 h -14.35466 c -0.65969,0 -1.19285,-0.53316 -1.19285,-1.19284 0,-0.66308 0.53316,-1.19623 1.19285,-1.19623 h 14.35466 c 0.6597,0 1.19285,0.53483 1.19285,1.19623 0,0.658 -0.53315,1.19284 -1.19285,1.19284 z"
       inkscape:connector-curvature="0"
       style="fill:#ffffff;fill-opacity:1" />
    <path
       style="fill:#c93b53;fill-opacity:1"
       inkscape:connector-curvature="0"
       d="m 155.67279,-83.96428 c 0,15.847417 -12.84771,28.695147 -28.69596,28.695147 -15.84823,0 -28.69535,-12.84752 -28.69535,-28.695147 0,-15.84863 12.84692,-28.69597 28.69515,-28.69597 15.84824,0 28.69616,12.84734 28.69616,28.69597 z"
       id="path3881" />
    <path
       style="fill:#ffffff"
       inkscape:connector-curvature="0"
       d="m 107.46442,-87.7953 c -2.11636,0 -3.83122,1.71487 -3.83122,3.83122 0,2.115537 1.71486,3.830607 3.83122,3.830607 2.11554,0 3.8306,-1.71507 3.8306,-3.830607 0,-2.11655 -1.71486,-3.83122 -3.8306,-3.83122 z m 27.35423,17.412267 c -1.8325,1.05787 -2.45973,3.39996 -1.40226,5.23165 1.05807,1.8325 3.39996,2.46014 5.23247,1.40227 1.83189,-1.05767 2.45953,-3.39977 1.40165,-5.23206 -1.05767,-1.83169 -3.39996,-2.45953 -5.23186,-1.40186 z M 115.78608,-83.96469 c 0,-3.78626 1.88148,-7.13056 4.7587,-9.1556 l -2.80089,-4.69168 c -3.35279,2.24005 -5.84674,5.66452 -6.88274,9.67532 1.21013,0.9864 1.98333,2.48848 1.98333,4.17237 0,1.68348 -0.7732,3.185557 -1.98353,4.171757 1.03579,4.0112 3.52995,7.43567 6.88274,9.67553 l 2.80109,-4.6921 c -2.87722,-2.02463 -4.7587,-5.36872 -4.7587,-9.155597 z m 11.19117,-11.19116 c 5.84652,0 10.64228,4.48274 11.145,10.19869 l 5.46004,-0.0798 c -0.26868,-4.22015 -2.1121,-8.00986 -4.94517,-10.79515 -1.45653,0.55029 -3.13921,0.46688 -4.5935,-0.37294 -1.45612,-0.84063 -2.36983,-2.25868 -2.62007,-3.7976 -1.41563,-0.39178 -2.90557,-0.60538 -4.4461,-0.60538 -2.64944,0 -5.15249,0.62198 -7.37595,1.72337 l 2.66159,4.77005 c 1.43283,-0.66672 3.02945,-1.04128 4.71416,-1.04128 z m 0,22.382537 c -1.68491,0 -3.28133,-0.37456 -4.71436,-1.04127 l -2.662,4.77044 c 2.22366,1.101 4.72692,1.72316 7.37636,1.72316 1.54054,0 3.03047,-0.21359 4.4463,-0.60536 0.25024,-1.53892 1.16416,-2.95698 2.62047,-3.79822 1.45429,-0.83941 3.13697,-0.92282 4.59349,-0.37232 2.83288,-2.7855 4.6763,-6.57521 4.94458,-10.795357 l -5.46005,-0.0798 c -0.50231,5.716757 -5.29827,10.198687 -11.14479,10.198687 z m 7.8408,-24.773227 c 1.83229,1.05827 4.17459,0.43043 5.23206,-1.40125 1.05807,-1.8325 0.43084,-4.17459 -1.40166,-5.23267 -1.8321,-1.05767 -4.1742,-0.43003 -5.23226,1.40246 -1.05768,1.8317 -0.43004,4.17399 1.40186,5.23146 z"
       id="path3883" />
  </g>
</svg>
